<svg width="50" height="50" viewBox="0 0 50 50" fill="none" xmlns="http://www.w3.org/2000/svg">
<path d="M25.0646 12.8583C18.4375 12.8583 13.05 18.2458 13.0479 24.8708C13.0458 27.575 13.8396 29.6 15.1708 31.7188L13.9583 36.1521L18.5042 34.9583C20.5417 36.1667 22.4854 36.8917 25.0562 36.8937C31.6771 36.8937 37.0708 31.5042 37.0729 24.8812C37.075 18.2417 31.7083 12.8604 25.0646 12.8583ZM32.1312 30.0333C31.8312 30.8771 30.3875 31.6458 29.6937 31.75C29.0708 31.8437 28.2833 31.8812 27.4187 31.6062C26.8937 31.4396 26.2208 31.2167 25.3604 30.8458C21.7375 29.2812 19.3729 25.6333 19.1917 25.3937C19.0104 25.1521 17.7167 23.4354 17.7167 21.6583C17.7167 19.8812 18.65 19.0062 18.9812 18.6458C19.3125 18.2854 19.7021 18.1937 19.9437 18.1937L20.6354 18.2062C20.8562 18.2167 21.1542 18.1229 21.4479 18.8271C21.7479 19.55 22.4708 21.3271 22.5604 21.5083C22.65 21.6896 22.7104 21.9 22.5896 22.1417C22.4688 22.3833 22.4083 22.5333 22.2292 22.7437L21.6875 23.3771C21.5062 23.5562 21.3187 23.7521 21.5292 24.1146C21.7396 24.4771 22.4646 25.6583 23.5375 26.6167C24.9167 27.8479 26.0812 28.2292 26.4417 28.4083C26.8021 28.5875 27.0125 28.5583 27.225 28.3188C27.4354 28.0771 28.1271 27.2646 28.3687 26.9021C28.6104 26.5417 28.85 26.6 29.1812 26.7208C29.5125 26.8417 31.2875 27.7146 31.6479 27.8958C32.0083 28.0771 32.25 28.1667 32.3396 28.3167C32.4333 28.4667 32.4333 29.1896 32.1312 30.0333ZM25 0C11.1937 0 0 11.1937 0 25C0 38.8062 11.1937 50 25 50C38.8062 50 50 38.8062 50 25C50 11.1937 38.8062 0 25 0ZM25.0604 39.3333C22.6417 39.3333 20.2583 38.725 18.1479 37.575L10.4875 39.5833L12.5375 32.0938C11.2729 29.9021 10.6062 27.4146 10.6083 24.8687C10.6104 16.9 17.0938 10.4167 25.0604 10.4167C28.9271 10.4187 32.5563 11.9229 35.2833 14.6542C38.0125 17.3854 39.5146 21.0167 39.5125 24.8792C39.5104 32.8479 33.0271 39.3333 25.0604 39.3333Z" fill="#F2DD72"/>
</svg>
