<svg width="79" height="81" viewBox="0 0 79 81" fill="none" xmlns="http://www.w3.org/2000/svg">
<path d="M62.0833 64.8667C61.2033 70.52 58.85 75.69 55.0833 80C54.8667 78.4633 54.2367 76.9733 53.64 75.78C52.2767 76.5 50.6433 76.88 49.2133 76.88L48.33 76.8267C52.3267 72.66 54.3 68.3467 54.88 62.5933C55.8167 62.8567 56.9567 62.9933 58.39 62.9933C59.7733 63.94 60.3167 64.5267 62.0833 64.8667ZM78.3333 76.83C74.3433 72.67 72.3933 68.3333 71.81 62.5933C70.8667 62.8567 69.7267 63 68.2733 63C66.8933 63.95 66.3167 64.5367 64.5867 64.87C65.4667 70.5267 67.82 75.6933 71.5833 80.0033C71.8 78.4667 72.43 76.9767 73.0267 75.7833C74.7267 76.68 76.7967 77.0233 78.3333 76.83ZM61.6933 60.7333C59.3467 59.0867 59.8533 59.2433 56.95 59.2533H56.9433C55.7367 59.2533 54.66 58.5033 54.2967 57.3967C53.4067 54.74 53.71 55.1533 51.3667 53.52C50.36 52.8267 49.9733 51.5967 50.3433 50.52C51.2533 47.8767 51.2533 48.3833 50.3433 45.7267C49.98 44.66 50.35 43.4233 51.3667 42.7267C53.71 41.1 53.4033 41.51 54.2967 38.85C54.66 37.74 55.7367 36.9933 56.9433 36.9933H56.95C59.85 37 59.3433 37.1667 61.6933 35.5133C62.18 35.1733 62.7533 35 63.3333 35C63.9133 35 64.4867 35.1733 64.9733 35.5133C67.32 37.1633 66.8133 37.0033 69.7167 36.9933H69.72C70.93 36.9933 72.0067 37.74 72.3767 38.85C73.2633 41.5033 72.95 41.0933 75.3 42.7267C76.0433 43.2367 76.46 44.05 76.46 44.8933L76.32 45.7267C75.4133 48.37 75.4133 47.8633 76.32 50.52C76.69 51.5767 76.32 52.82 75.3 53.52C72.95 55.15 73.2633 54.74 72.3767 57.3967C71.6933 59.4433 70.19 59.2467 68.4433 59.2467C66.9 59.2467 66.8933 59.3867 64.9733 60.7333C63.9967 61.4233 62.67 61.4233 61.6933 60.7333ZM63.3333 54.6867C66.96 54.6867 69.8967 51.7467 69.8967 48.1233C69.8967 44.5 66.96 41.56 63.3333 41.56C59.7067 41.56 56.77 44.4967 56.77 48.1233C56.77 51.7467 59.7067 54.6867 63.3333 54.6867ZM47.7533 59.13C42.17 62.6567 35.8833 66.62 34.58 67.44C34.4367 64.8667 33.4833 62.4667 31.82 60.4933C31.6267 60.2467 12.4433 35.8267 7.74667 29.8133C4.05 25.08 7.54667 20.0333 11.8467 20.0333C17.4933 20.0333 19.7433 27.39 14.8267 30.5767L18.7033 35.53L45.5467 20.36C50.2 16.92 51.5133 10.5667 48.5933 5.58C46.5767 2.14 42.84 0 38.8467 0C37.2633 0 35.7267 0.326667 34.27 0.973333L6.72333 15.0633C2.38667 17.1433 0 21.2167 0 25.5533C0 28.2733 0.94 31.0967 2.92333 33.5933C7.73667 39.6433 27.1267 64.4367 27.32 64.6867C30.1933 68.51 27.3767 73.8633 22.7333 73.8633C19.4367 73.8633 17.68 71.5133 17.1767 69.5033C16.59 67.1533 17.4067 64.8133 19.7533 63.31L15.95 58.45C13.1 60.4567 11.2833 63.5 10.9267 66.9033C10.1667 74.15 15.94 80 22.7833 80C24.8833 80 26.9667 79.42 28.8067 78.3267L47.09 66.8C47.97 65.4167 48.8533 62.03 47.7533 59.13ZM36.69 6.61333C37.3667 6.29667 38.1267 6.13 38.8867 6.13C40.81 6.13 42.4933 7.14667 43.3833 8.85C44.51 11 44.1967 14.15 41.4033 15.7533L23.7133 25.7733C23.7133 21.8033 21.7767 18.16 18.48 15.9333L36.69 6.61333ZM43.3133 27.5033L49.0633 34.56C50.2233 32.81 51.9233 31.49 53.93 30.8233L48.7233 24.4367L43.3133 27.5033ZM33.6933 54.3133L43.2633 48.8867L41.1533 46.1367L31.61 51.6733L33.6933 54.3133ZM39.8333 31.0233L23.1267 40.8333L25.2067 43.4733L41.96 33.6367L39.8333 31.0233ZM44.12 36.3467L27.3367 46.23L29.4167 48.87L46.2467 38.9567L44.12 36.3467Z" fill="#F2DD72"/>
</svg>
