<svg width="30" height="30" viewBox="0 0 30 30" fill="none" xmlns="http://www.w3.org/2000/svg">
<path d="M27.5 5H2.5C1.12 5 0 6.12 0 7.5V22.5C0 23.88 1.12 25 2.5 25H27.5C28.88 25 30 23.88 30 22.5V7.5C30 6.12 28.88 5 27.5 5ZM27.5 21.875C27.5 22.22 27.22 22.5 26.875 22.5H3.125C2.78 22.5 2.5 22.22 2.5 21.875V13.75H27.5V21.875ZM27.5 10H2.5V8.125C2.5 7.78 2.78 7.5 3.125 7.5H26.875C27.22 7.5 27.5 7.78 27.5 8.125V10ZM16.25 17.5H5V16.25H16.25V17.5ZM12.5 20H5V18.75H12.5V20ZM25 17.5H21.25V16.25H25V17.5Z" fill="#F2DD72"/>
</svg>
